<?xml version="1.0" encoding="UTF-8"?>
<!-- Generator: Adobe Illustrator 25.2.1, SVG Export Plug-In . SVG Version: 6.00 Build 0)  -->
<svg xmlns="http://www.w3.org/2000/svg" xmlns:xlink="http://www.w3.org/1999/xlink" version="1.1" id="Capa_1" x="0px" y="0px" viewBox="0 0 512 512" style="enable-background:new 0 0 512 512;" xml:space="preserve" width="512" height="512">
<g>
	<g>
		<g>
			<g>
				<g>
					<path style="fill:#00328D;" d="M252.882,215.823L252.882,215.823c-2.387,0.272-4.551-1.42-4.862-3.802L223.969,28.096       c-0.319-2.439,1.422-4.665,3.866-4.944l6.109-0.696c2.443-0.278,4.641,1.5,4.879,3.947l17.942,184.621       C256.998,213.416,255.269,215.551,252.882,215.823z"/>
					<path style="fill:#007AF4;" d="M246.369,16.739c1.019,8.949-5.408,17.03-14.357,18.05c-8.949,1.019-17.03-5.408-18.049-14.357       c-1.019-8.949,5.408-17.03,14.357-18.049S245.349,7.79,246.369,16.739z"/>
					<path style="opacity:0.5;fill:#00328D;" d="M246.369,16.741c1.02,8.953-5.401,17.025-14.353,18.045       c-6.41,0.73-12.355-2.35-15.6-7.451c1.065,0.055,2.139,0.038,3.237-0.086C229.737,26.1,236.992,16.98,235.84,6.877       c-0.153-1.341-0.441-2.632-0.864-3.871C240.973,4.845,245.613,10.104,246.369,16.741z"/>
				</g>
				<path style="fill:#000E3F;" d="M222.669,35.581l23.091,176.732c0.454,3.466,3.569,6,7.027,5.797l0.364-0.021      c3.582-0.416,6.244-3.676,5.873-7.283L241.766,33.093c4.818-3.866,7.606-10.033,6.855-16.608      c-0.54-4.945-2.991-9.366-6.892-12.447c-3.878-3.082-8.752-4.463-13.673-3.924c-10.181,1.167-17.515,10.385-16.348,20.565      C212.492,27.458,216.832,32.979,222.669,35.581z M227.428,36.946c1.244,0.201,2.526,0.263,3.822,0.187      c0.341-0.02,0.683-0.04,1.023-0.083c1.814-0.198,3.544-0.664,5.148-1.352l17.087,175.554c0.089,1.136-0.74,2.166-1.874,2.301      l-0.091,0.005c-1.07,0.063-2.12-0.721-2.276-1.83L227.428,36.946z M216.219,20.164c-0.861-7.687,4.665-14.653,12.353-15.515      c0.272-0.039,0.522-0.053,0.795-0.069c3.458-0.203,6.807,0.857,9.536,3.025c2.921,2.34,4.783,5.677,5.206,9.396      c0.43,3.809-0.705,7.437-2.914,10.237c-1.146,1.482-2.581,2.707-4.24,3.603c-1.545,0.89-3.314,1.473-5.197,1.674      c-1.701,0.191-3.373,0.083-4.95-0.326c-1.782-0.42-3.448-1.19-4.881-2.27C218.852,27.702,216.685,24.222,216.219,20.164z"/>
			</g>
			<g>
				<g>
					<path style="fill:#00328D;" d="M222.914,220.838L222.914,220.838c2.078-1.205,2.806-3.854,1.636-5.952L134.181,52.898       c-1.198-2.148-3.924-2.897-6.051-1.663l-5.318,3.084c-2.128,1.233-2.832,3.971-1.563,6.078l95.687,158.905       C218.175,221.359,220.836,222.043,222.914,220.838z"/>
					<path style="fill:#007AF4;" d="M109.428,57.137c4.518,7.792,14.496,10.446,22.288,5.928       c7.792-4.518,10.446-14.496,5.928-22.288c-4.518-7.792-14.496-10.446-22.288-5.928       C107.564,39.367,104.91,49.346,109.428,57.137z"/>
					<path style="opacity:0.5;fill:#00328D;" d="M109.429,57.139c4.52,7.795,14.488,10.447,22.282,5.927       c5.581-3.236,8.516-9.254,8.081-15.283c-0.822,0.679-1.694,1.306-2.651,1.861c-8.781,5.091-20.042,2.096-25.143-6.701       c-0.677-1.168-1.215-2.376-1.615-3.623C106.667,44.372,106.078,51.36,109.429,57.139z"/>
				</g>
				<path style="fill:#000E3F;" d="M107.447,58.285c2.488,4.283,6.503,7.357,11.302,8.628c1.37,0.376,2.773,0.568,4.146,0.625      l92.091,152.945c1.315,2.183,3.733,3.342,6.145,3.201c1.001-0.059,2.011-0.346,2.917-0.878c3.135-1.804,4.267-5.865,2.484-9.025      L139.69,58.108c3.143-5.548,3.348-12.59-0.078-18.484c-5.13-8.852-16.537-11.882-25.39-6.753      c-4.304,2.489-7.379,6.504-8.651,11.303C104.301,48.974,104.959,53.98,107.447,58.285z M127.909,67.015      c1.711-0.396,3.384-1.065,4.952-1.979c1.434-0.837,2.723-1.826,3.843-2.964l85.849,153.927c0.56,0.994,0.226,2.292-0.79,2.877      c-0.995,0.561-2.291,0.248-2.874-0.744L127.909,67.015z M109.53,49.786c-0.085-1.456,0.054-2.971,0.447-4.431      c0.976-3.618,3.286-6.652,6.53-8.532c1.942-1.141,4.075-1.745,6.191-1.869c5.118-0.3,10.22,2.232,12.985,6.977      c2.034,3.533,2.362,7.577,1.227,11.204c-0.516,1.72-1.379,3.345-2.551,4.76c-1.046,1.248-2.307,2.326-3.785,3.189      c-1.611,0.939-3.379,1.545-5.168,1.787c-1.812,0.242-3.667,0.123-5.476-0.364c-0.024,0.001-0.047-0.02-0.07-0.019      c-3.593-0.953-6.582-3.267-8.46-6.489C110.283,54.079,109.656,51.947,109.53,49.786z"/>
			</g>
		</g>
		<g>
			<g>
				<path style="fill:#FFCF00;" d="M407.36,465.353c13.681-20.572,25.739-42.05,36.19-64.428      c6.443-13.796,17.262-40.755,19.285-50.96c0.409-2.062,8.835-20.414-2.616-43.514c-1.671-3.372-5.061-8.109-8.473-10.51      c-2.242-1.578-3.276-1.364-4.493,1.031c-3.156,6.215-9.411,24.717-31.325,41.795c-63.772,49.699-187.063,26.839-256.21-8.686      c-41.701-21.424-75.938-56.645-77.101-103.484c-0.237-9.553,0.634-11.712-2.894-11.221      c-14.315,1.993-28.606,20.727-31.83,36.634c-5.938,29.308-7.645,81.938,1.853,137.962c1.977,11.66,11.218,25.48,19.754,35.348      c18.964,21.924,48.967,41.206,75.666,53.603c23.351,10.842,33.507,13.425,50.673,18.72      C264.287,518.758,377.724,509.917,407.36,465.353z"/>
				<g>
					<path style="fill:#00D5FE;" d="M253.852,277.305c14.439,3.439,29.025,3.966,43.726,2.209       c12.947-1.547,25.377-5.04,36.937-11.025c11.555-5.983,21.93-13.626,29.852-24.195c4.163-5.554,7.552-11.547,10.032-18.021       c5.484-14.316,5.911-28.93,2.057-43.666C357.647,110.678,242.374,78.337,185.569,133c-8.455,8.137-14.844,17.675-18.739,28.91       c-4.569,13.181-4.912,26.456-1.73,39.867c2.783,11.728,8.233,22.18,15.564,31.772c12.838,16.799,29.5,28.394,48.77,36.51       C237.21,273.334,242.386,275.12,253.852,277.305z"/>
					<path style="fill:#007AF4;" d="M184.102,311.214c-2.067,7.505-1.722,15.807-0.636,24.172c0.352,2.714,1.657,4.231,4.068,5.097       c27.634,9.929,52.291,18.061,79.254,20.745c0.185,0.019,23.469,4.527,57.815,4.066c27.816-0.373,47.689-5.822,68.375-14.54       c1.12-0.472,2.078-1.127,2.472-2.343c1.351-4.169,2.729-8.254,3.075-12.755c1.215-15.811-0.784-29.884-9.891-44.203       c-8.217-12.918-16.864-21.769-32.926-28.703c-4.166-1.799-6.026-1.366-7.9-0.048c-23.797,16.731-59.805,24.449-95.312,16.612       c-33.288-7.347-33.179-16.385-40.9-11.7c-4.546,2.758-8.639,6.003-12.072,10.132       C191.551,287.334,186.541,298.259,184.102,311.214z"/>
				</g>
				<g>
					<path style="fill:#00328D;" d="M307.957,335.955c-0.655-13.134-5.647-32.655-13.84-45.197       c-1.153-1.765-3.816-1.222-3.657,0.294c0.973,9.274,11.81,29.254,10.008,56.75c-0.198,3.033-1.491,8.186-1.424,10.421       C299.189,363.011,309.565,368.206,307.957,335.955z"/>
					<path style="fill:#00328D;" d="M322.46,301.177c-2.041-4.033-4.77-7.72-7.231-11.535c-2.638-4.09-5.897-2.409-3.992,1.435       c1.365,2.753,2.797,5.473,4.126,8.243c7.789,16.235,13.225,36.96,11.723,55.697c-0.207,2.583-0.182,4.858,2.346,5.401       c1.533,0.33,3.324-0.96,3.667-2.467C337.162,340.124,330.776,317.606,322.46,301.177z"/>
					<path style="fill:#00328D;" d="M280.985,347.463c1.654-13.212,0.303-27.042-3.015-39.904c-0.037-0.14-0.073-0.28-0.11-0.421       c-1.368-5.216-3.161-10.835-6.662-15.052c-1.253-1.519-3.08-0.666-2.937,1.103c0.743,9.185,6.838,22.273,5.033,51.915       c-0.247,4.053-2.628,11.443,1.513,12.481C278.983,358.632,280.451,351.734,280.985,347.463z"/>
					<path style="fill:#00328D;" d="M255.088,325.526c6.919-1.098,5.749-6.32,0.651-6.663c-2.043-0.137-4.091-0.327-6.134-0.296       c-8.882,0.135-25.516-5.53-33.804-10.102c-4.185-2.308-10.197-6.505-11.754-6.768c-1.509-0.254-1.859,1.268-1.599,1.882       C206.73,313.692,237.915,328.251,255.088,325.526z"/>
					<path style="fill:#00328D;" d="M252.045,345.823c1.938-0.136,4.013-2.449,2.283-4.259c-2.442-2.506-4.989-0.765-19.148-3.92       c-25.517-5.665-32.772-15.015-37.058-14.584c-2.003,0.202-0.962,2.296-0.256,3.308       C203.898,335.015,229.927,347.373,252.045,345.823z"/>
					<path style="fill:#00328D;" d="M262.039,299.076c1.359-3.19-2.37-4.36-4.6-4.492c-4.66-0.277-9.237-0.706-13.836-1.563       c-20.51-3.819-28.415-15.621-30.649-13.748c-0.279,0.233-0.514,0.824-0.413,1.146       C217.356,295.733,258.259,307.949,262.039,299.076z"/>
					<path style="fill:#00328D;" d="M388.944,331.22c-0.988-2.308-4.21,0.352-6.439,1.884       c-18.683,12.835-34.781,10.506-38.542,11.986c-2.373,0.933-3.118,3.732-1.054,5.443c1.105,0.916,2.835,0.808,4.226,0.903       C370.74,353.033,390.475,334.791,388.944,331.22z"/>
					<path style="fill:#00328D;" d="M381.516,303.335c-1.268-0.116-2.994,1.988-3.86,2.782       c-17.152,15.728-34.18,16.551-37.703,18.634c-2.085,1.232-1.953,4.189,0.165,5.384c5.506,3.106,34.572-8.78,42.387-23.309       C383.226,305.484,383.171,303.486,381.516,303.335z"/>
					<path style="fill:#00328D;" d="M367.973,286.226c0.979-1.157,2.887-2.807,2.836-4.411c-0.054-1.672-1.57-2.285-2.872-1.307       c-0.482,0.362-7.771,7.706-22.834,15.533c-8.415,4.373-17.387,2.928-17.261,7.003c0.039,1.271,0.748,2.197,1.906,2.732       C334.832,308.123,355.026,301.757,367.973,286.226z"/>
				</g>
				<g>
					<path style="fill:#007AF4;" d="M178.457,155.195c1.486,2.675,10.968-1.062,29.286-2.001       c53.956-2.765,120.361,19.999,146.025,67.503c1.338,2.477,2.823,6.624,6.489,4.794c1.384-0.691,1.881-2.161,1.253-4.221       c-3.271-10.723-16.879-27.126-26.827-35.593c-43.774-37.261-115.37-45.605-153.142-33.05       C179.987,153.143,177.553,153.567,178.457,155.195z"/>
					<path style="fill:#007AF4;" d="M202.746,139.29c4.04,1.019,18.106-5.536,52.991-1.971       c39.541,4.042,84.03,24.853,104.435,60.449c0.508,0.886,0.967,1.821,1.604,2.608c1.64,2.027,5.026,0.431,4.915-2.245       c-0.157-3.782-21.536-45.009-82.145-61.563C232.47,122.345,194.972,137.33,202.746,139.29z"/>
					<path style="fill:#007AF4;" d="M232.231,118.913c0.088,2.048,2.3,1.776,4.287,1.331c25.626-5.733,53.653-0.031,77.596,12.057       c37.427,18.893,42.749,40.422,48.419,36.457c8.945-6.258-33.218-39.53-59.36-48.197       C263.958,107.56,233.792,113.68,232.231,118.913z"/>
					<path style="fill:#007AF4;" d="M248.49,264.483c-2.901,1.891-1.134,6.533,2.303,5.739c8.571-1.978,19.415-10.973,25.659-17.962       c8.923-9.988,16.076-21.653,21.143-34.043c4.678-11.438,7.854-24.135,5.981-36.522c-0.43-2.841-2.797-2.347-3.291-1.096       c-0.834,2.109-1.191,4.443-1.662,6.65c-0.815,3.824-1.646,7.644-2.624,11.431c-2.781,10.76-6.668,21.256-12.126,30.957       c-3.29,5.847-7.133,11.384-11.521,16.462C259.311,261.193,253.513,261.211,248.49,264.483z"/>
					<path style="fill:#007AF4;" d="M279.554,170.396c-5.076,0.052-0.015,25.43-28.839,60.971       c-5.026,6.197-10.742,11.615-17.086,16.398c-3.478,2.623-9.988,3.754-7.811,7.801c1.632,3.034,4.654,1.697,7.712,0.027       c16.974-9.271,30.879-26.668,38.998-44.105C283.354,188.239,283.435,170.357,279.554,170.396z"/>
					<path style="fill:#007AF4;" d="M255.966,168.004c-0.104-5.624-3.121-5.922-4.207-2.485c-2.112,6.683-3.945,13.443-6.832,19.845       c-2.738,6.073-6.046,11.884-9.69,17.457c-6.712,10.265-14.581,19.794-23.344,28.372c-4.88,4.752-7.66,5.584-6.485,8.589       c0.691,1.766,2.686,2.633,4.317,1.67C232.634,227.936,256.347,188.533,255.966,168.004z"/>
					<path style="fill:#007AF4;" d="M350.151,243.991c-3.725-0.509-19.733,13.454-45.815,13.378       c-13.892-0.04-17.82-3.239-20.633-3.604c-3.345-0.434-6.085,3.506-3.65,6.242c1.525,1.715,4.74,2.693,6.876,3.419       c15.227,5.174,44.454,0.082,60.045-13.365C349.433,247.938,353.375,244.431,350.151,243.991z"/>
					<path style="fill:#007AF4;" d="M196.991,225.726c1.514,1.249,3.337,2.563,5.345,2.801c3.134,0.372,4.689-2.944,3.241-4.96       c-3.08-4.285-24.093-19.041-26.571-52.905c-0.117-1.601-0.344-3.2-0.632-4.78c-0.205-1.125-1.468-1.351-2.302-0.794       c-1.646,1.1-1.79,3.316-2.005,5.084C172.079,186.463,183.872,214.901,196.991,225.726z"/>
					<path style="fill:#007AF4;" d="M223.595,207.651c1.906,0.031,3.533-1.952,2.894-3.819c-0.622-1.818-2.823-2.948-4.332-3.915       c-23.542-15.095-25.172-32.444-29.554-37.229c-1.129-1.233-3.134,0.275-2.859,3.85       C191.363,187.626,217.095,207.547,223.595,207.651z"/>
					<path style="fill:#007AF4;" d="M348.699,227.23c-3.396-3.693-19.21,12.368-47.446,2.532c-2.128-0.741-3.949-1.729-5.306,0.737       c-3.355,6.093,8.352,7.875,11.918,8.402C331.795,242.44,352.048,230.872,348.699,227.23z"/>
					<path style="fill:#007AF4;" d="M240.59,182.463c1.824-2.894-2.014-4.769-4.048-5.656c-4.101-1.789-8.107-3.632-11.921-5.997       c-11.128-6.904-13.548-14.133-16.253-12.634c-1.188,0.659-0.931,1.724-0.654,2.71       C211.632,174.773,237.11,187.987,240.59,182.463z"/>
					<path style="fill:#007AF4;" d="M338.309,210.591c2.751-1.793,1.478-4.275-1.221-4.073c-4.906,0.367-10.947,2.196-18.88,1.071       c-2.921-0.414-10.143-3.232-11.938,0.662C303.376,214.527,324.329,219.704,338.309,210.591z"/>
				</g>
				<path style="fill:#FF8EDE;" d="M85.649,209.935c-2.114,9.978-1.522,19.618-0.003,29.228      c6.817,43.126,43.253,74.834,82.55,92.951c11.965,5.516,14.145,7.049,13.241,1.92c-3.995-22.667,7.066-53.96,27.973-67.176      c7.828-4.948-2.173-1.773-22.808-23.536c-16.021-16.897-26.37-38.501-25.392-61.81c0.772-18.396,7.451-23.268,1.982-23.643      c-28.412-1.95-63.527,14.284-75.157,43.056C86.809,203.959,86.354,207.152,85.649,209.935z"/>
				<g>
					<path style="fill:#FC09B2;" d="M441.182,216.251c-10.448-20.211-29.815-38.582-53.349-40.835       c-6.695-0.641-10.773-1.671-9.992,5.284c0.706,6.296,2.692,12.179,2.836,18.647c0.258,11.584-2.013,23.51-7.273,33.886       c-7.233,14.27-16.06,21.228-18.895,24.065c-3.715,3.719,2.454,2.318,14.549,10.676c20.273,14.01,31.403,36.117,31.829,58.843       c0.269,14.346-3.411,17.805-1.393,19.443c1.16,0.942,2.238-0.1,3.185-0.649C453.218,316.295,465.048,251.241,441.182,216.251z"/>
					<g>
						<path style="fill:#FC09B2;" d="M114.499,279.516c4.109-3.197,10.386-21.966,30.382-36.577        c15.682-11.459,21.783-11.002,23.952-13.715c1.197-1.497,0.167-3.181-1.243-3.304c-10.85-0.944-31.35,13.034-39.264,21.563        c-7.213,7.773-13.318,16.367-18.304,25.74C107.21,278.508,111.404,281.924,114.499,279.516z"/>
						<path style="fill:#FC09B2;" d="M121.345,220.598c-3.439,1.95-6.99,3.717-10.185,6.069        c-4.46,3.284-15.438,10.813-18.233,15.673c-1.43,2.487,0.896,5.783,3.915,4.21c4.552-2.372,3.64-4.152,24.273-17.374        c21.391-13.709,40.471-12.846,39.445-17.358c-0.225-0.99-1.042-1.336-1.931-1.545        C155.79,209.606,137.532,211.419,121.345,220.598z"/>
						<path style="fill:#FC09B2;" d="M97.146,203.194c-3.577,1.906-8.227,4.997-5.76,8.209c1.828,2.38,4.172,0.915,5.901,0.041        c33.46-16.916,38.668-14.996,54.258-15.413c1.451-0.039,3.801-0.37,4.325-2.034c1.204-3.822-10.46-3.638-12.318-3.696        C127.195,189.795,111.561,195.513,97.146,203.194z"/>
						<path style="fill:#FC09B2;" d="M171.491,309.128c2.048-0.416,2.091-2.347,0.696-3.136        c-6.455-3.654-11.988-3.481-27.648-15.202c-7.422-5.555-13.126-13.393-15.246-15.198c-1.627-1.385-4.398-0.81-4.728,2.253        c-0.534,4.965,16.489,24.695,37.602,30.234C165.133,308.857,168.487,309.739,171.491,309.128z"/>
						<path style="fill:#FC09B2;" d="M183.089,286.338c0.6-0.347,0.821-1.365,0.449-1.935c-2.203-3.383-12.858-4.657-26.089-17.64        c-4.054-3.979-6.627-9.516-9.384-12.741c-2.796-3.271-9.695,0.075,0.265,13.241        C159.816,282.445,178.996,288.709,183.089,286.338z"/>
						<path style="fill:#FC09B2;" d="M193.086,265.289c-17.606-8.072-25.936-23.934-27.709-26.058        c-1.756-2.105-5.265,0.025-4.75,2.388c3.426,15.711,28.108,30.345,34.513,29.025c1.029-0.212,1.985-1.164,1.808-2.199        C196.726,267.149,194.172,265.787,193.086,265.289z"/>
						<path style="fill:#FC09B2;" d="M144.321,182.507c1.262,2.233,4.234,2.038,5.011-0.54c0.601-1.994,0.527-2.847,0.672-14.288        c0.019-1.544,0.048-3.337-1.766-3.803C143.519,162.665,141.661,177.798,144.321,182.507z"/>
						<path style="fill:#FC09B2;" d="M130.553,182.484c0.795-3.411,1.258-8.352-1.161-11.24c-1.333-1.598-3.785-1.363-4.753,0.49        c-1.353,2.589-1.387,6.048-0.859,8.855C124.84,186.234,129.275,187.967,130.553,182.484z"/>
						<path style="fill:#FC09B2;" d="M114.476,189.022c1.234-3.539,0.712-9.603-3.224-9.799c-1.528-0.076-2.819,0.953-3.445,2.783        C104.886,190.548,112.482,194.739,114.476,189.022z"/>
					</g>
				</g>
				<g>
					<path style="fill:#FF8EDE;" d="M378.361,240.472c-1.114,0.202-1.733,1.439-0.573,2.158c7.465,4.63,27.537,12.085,46.075,36.417       c8.417,11.047,8.685,19.584,13.047,18.089c8.3-2.846-9.108-24.011-11.379-26.639c-10.007-11.579-21.836-20.733-35.771-27.134       C387.082,242.133,380.412,240.099,378.361,240.472z"/>
					<path style="fill:#FF8EDE;" d="M386.279,225.29c-3.569,0.131-4.315,2.951-0.413,3.978c5.885,1.549,16.702,2.293,35.552,15.575       c18.193,12.82,18.105,24.761,23.407,21.236c2.462-1.637,0.82-4.477-0.694-7.015       C434.397,242.738,406.618,224.539,386.279,225.29z"/>
					<path style="fill:#FF8EDE;" d="M385.031,210.422c0.127,4.859,13.515-2.501,41.053,15.479       c6.943,4.533,12.055,10.778,12.739,11.382c2.539,2.242,6.054-0.413,4.815-3.487c-2.396-5.945-19.228-20.001-38.236-24.677       C400.517,207.918,384.9,205.393,385.031,210.422z"/>
					<path style="fill:#FF8EDE;" d="M404.686,313.755c4.622,4.853,17.13-13.752,19.201-20.595c0.444-1.468,1.111-3.91-0.838-4.608       c-2.454-0.879-4.509,3.318-5.576,4.857C408.278,306.674,401.401,310.305,404.686,313.755z"/>
					<path style="fill:#FF8EDE;" d="M404.789,267.642c-1.098,0.852-4.331,4.83-5.116,5.941c-2.488,3.522-6.959,7.478-7.659,10.015       c-0.673,2.44,1.359,4.967,4.018,3.179C408.515,278.383,408.923,264.431,404.789,267.642z"/>
					<path style="fill:#FF8EDE;" d="M400.965,197.626c-0.703-17.223-8.525-20.821-7.69-12.631       c1.22,11.966,1.134,13.183,1.705,14.794C396.309,203.535,401.174,202.745,400.965,197.626z"/>
					<path style="fill:#FF8EDE;" d="M377.816,266.731c-1.811,3.31,2.131,5.609,4.629,3.374c7.969-7.13,9.51-17.626,5.888-16.892       c-2.317,0.47-3.416,3.497-4.577,5.237C381.872,261.273,379.456,263.735,377.816,266.731z"/>
					<path style="fill:#FF8EDE;" d="M413.359,190.968c-0.474,0.963-0.716,10.233-0.744,11.3c-0.047,1.78-0.285,4.726,1.448,5.87       c4.864,3.211,6.918-8.894,2.717-16.906C415.801,189.365,413.988,189.69,413.359,190.968z"/>
				</g>
				<path style="opacity:0.5;fill:#FC09B2;" d="M125.802,305.448c11.894,10.177,26.79,19.065,31.326,21.169      c1.167,0.541,2.103,0.221,2.393-1.004c13.207-55.705-57.281-85.618-32.623-136.068c6.586-13.474,20.811-26.533,35.335-29.748      c0.8-0.177,1.49-0.344,2.007-0.928c-11.82-6.15-34.918,3.465-45.742,8.211C57.376,193.881,88.254,273.319,125.802,305.448z"/>
				<g>
					<path style="fill:#FD8A02;" d="M457.882,360.195c1.931-1.324,3.153-2.96,3.682-5.241c0.761-3.284,1.911-6.467,2.829-9.703       c5.416-19.084-1.933-41.203-12.417-49.133c-3.946-2.984-4.14-0.338-7.55,6.985c-41.973,90.141-192.948,71.896-281.71,28.443       c-42.783-20.944-78.78-56.93-80.094-104.718c-0.278-10.104,0.66-11.99-3.108-11.424c-12.238,1.839-28.806,18.994-31.719,37.262       c-1.611,10.105-4.303,14.827,0.255,21.226c3.997,5.611,12.342,21.836,35.614,43.435       C178.781,405.609,353.867,431.557,457.882,360.195z"/>
					<path style="fill:#FD8A02;" d="M323.008,480.081c0.436,2.992,3.54,4.372,6.056,2.681c3.438-2.31,5.582-7.965,7.399-11.498       c9.374-18.229,16.27-35.761,22.841-55.062c1.908-5.604-2.599-9.167-6.403-1.831c-7.727,14.902-23.007,47.124-25.958,54.033       C325.59,471.572,322.505,476.629,323.008,480.081z"/>
					<path style="fill:#FD8A02;" d="M112.549,432.567c0.789,5.661,3.902,6.725,6.407,4.925c2.934-2.108,2.386-3.779,2.304-14.603       c-0.071-9.444-0.14-52.796-1.336-60.276c-0.819-5.124-4.345-4.76-5.264-2.765C112.789,363.912,108.922,406.536,112.549,432.567       z"/>
					<path style="fill:#FD8A02;" d="M76.371,340.193c-0.524,4.213-1.212,8.414-1.529,12.642       c-0.912,12.183-2.656,42.904,0.419,54.352c1.242,4.623,8.284,4.284,8.134-3.711c-1.01-53.997,0.285-62.482-1.154-67.646       c-0.429-1.541-2.401-1.888-3.588-0.774C77.565,336.076,76.934,337.497,76.371,340.193z"/>
					<path style="fill:#FD8A02;" d="M401.441,403.761c-2.134-0.721-3.69,1.698-4.91,4.188c-2.997,6.113-22.518,48.367-26.454,58.689       c-0.809,2.122-1.628,4.6,0.702,6.115c1.891,1.229,4.439,0.283,5.857-1.238C381.891,465.877,408.471,406.136,401.441,403.761z"/>
				</g>
				<path style="opacity:0.5;fill:#FD8A02;" d="M340.95,501.777c11.091-2.495,28.085-8.176,32.505-10.815      c0.88-0.526,0.919-1.421,0.126-2.191c-16.536-16.069-117.973,2.015-189.52-27.547C68.503,413.476,90.402,353.668,55.57,301.229      c-1.557-2.345-8.086-11.189-10.299-12.526c-1.556-0.94-1.756,1.715-1.835,3.53c-1.401,32.292,0.898,65.891,6.323,97.798      C59.489,447.259,199.041,533.701,340.95,501.777z"/>
				<path style="opacity:0.25;fill:#000E3F;" d="M450.025,241.252c-1.609-7.892-3.172,3.844-13.056,9.725      c-12.384,7.369-23.757-1.725-43.878-6.667c-6.554-1.61-22.574-4.867-27.773,1.683c-9.815,12.368-15.481,12.483-9.236,14.998      c32.564,13.12,50.352,48.981,43.271,81.314c-0.298,1.358-1.224,3.064,0.315,4.066c1.258,0.819,2.512-0.418,3.584-1.078      C442.689,321.028,457.986,280.295,450.025,241.252z"/>
				<g style="opacity:0.25;">
					<path style="fill:#00328D;" d="M183.415,335.042c0.363,2.861,1.52,4.594,4.203,5.485c11.714,3.887,51.698,19.13,78.846,20.675       c2.809,0.16,11.531,2.706,39.354,3.875c30.569,1.284,57.918-1.385,85.665-13.717c1.353-0.602,1.507-1.602,0.536-2.865       c-7.254-9.44-16.355-13.512-27.786-16.536c-24.74-6.546-63.736,11.749-111.555-23.626       c-11.798-8.728-19.717-23.089-20.257-32.356c-0.194-3.329-1.666-3.237-14.205-9.093       C209.282,262.712,177.944,291.862,183.415,335.042z"/>
					<path style="fill:#00328D;" d="M342.567,259.651c-18.123-25.88-84.505-5.704-123.849-52.388       c-17.943-21.292,9.211-36.245,2.479-73.029c-1.174-6.413-4.348-11.789-9.136-16.201c-1.721-1.586-2.134-1.632-4.292-0.54       c-56.095,28.396-59.853,93.822-8.988,134.593c26.537,21.27,68.629,33.318,106.795,25.179       C313.15,275.649,347.011,265.998,342.567,259.651z"/>
				</g>
			</g>
			<g>
				<path style="fill:#000E3F;" d="M81.757,442.234c-15.36-13.547-32.562-33.734-35.695-53.655      c-5.349-34-13.542-126.668,5.661-154.942c7.104-10.46,15.443-19.267,28.486-22.007c1.751-0.368,1.898-1.618,2.382-4.255      c4.891-26.676,39.575-54.886,81.809-52.997c1.811,0.081,2.31-1.302,3.039-2.72c30.055-58.418,126.589-66.315,181.81-16.812      c22.926,20.552,23.582,32.787,26.861,35.597c2.941,2.522,19.634-0.781,38.758,11.252c19.462,12.247,32.045,33.341,37.517,55.314      c4.98,19.996,2.829,42.737-0.758,51.279c-2.048,4.878,2.447,1.897,9.697,13.457c6.715,10.705,10.493,27.423,6.784,43.272      c-8.878,37.937-49.504,118.175-67.74,133.172c-45.044,37.041-129.596,39.422-187.547,27.19      C160.093,494.186,112.769,469.585,81.757,442.234z M408.5,460.887c21.661-34.341,45.482-78.955,54.782-118.538      c4.612-19.629-4.101-39.219-12.146-45.082c-1.501-1.094-1.892-1.052-2.598,0.554c-6.039,13.631-14.438,26.147-25.295,36.411      c-60.445,57.143-191.063,35.208-266.483-3.951c-18.035-9.364-36.085-22.944-50.273-39.421      c-17.707-20.564-25.319-43.532-25.643-69.494c-0.046-3.716-0.263-5.218-4.308-3.714c-11.718,4.357-25.909,20-28.555,40.752      c-5.759,45.167-3.607,91.45,3.023,129.75c6.441,37.202,57.227,70.925,91.144,87.601      C239.877,523.82,374.635,514.575,408.5,460.887z M287.544,109.643c-22.958-4.83-50.103-3.245-73.107,6.515      c-20.376,8.645-38.401,24.08-45.845,45.411c-22.582,64.703,52.677,125.916,128.36,116.462      C407.572,264.212,402.825,133.975,287.544,109.643z M265.451,359.631c39.888,5.814,90.818,8.038,126.694-10.29      c1.38-0.705,2.173-1.789,2.629-3.32c10.089-33.867-9.17-71.105-42.605-82.93c-1.601-0.566-2.48,0.166-5.501,2.16      c-23.154,15.28-50.298,20.499-78.265,17.966c-14.249-1.291-34.979-6.209-49.183-14.153c-2.884-1.613-5.199-1.183-7.731,0.392      c-11.728,7.292-19.756,20.455-23.476,32.515c-0.864,2.799-1.896,5.535-2.466,8.428c-1.576,7.995-1.787,16-0.618,24.07      c0.354,2.445,1.371,3.818,3.803,4.725C233.345,355.823,254.606,358.05,265.451,359.631z M87.739,242.063      c4.403,21.799,16.581,41.082,32.454,56.397c16.396,15.819,36.427,27.709,57.485,36.207c5.63,2.272-2.902-7.053,5.04-32.796      c4.402-14.27,12.676-27.897,25.347-35.915c3.53-2.233,1.474-1.44-10.212-10.451c-24.247-18.697-40.636-47.229-37.941-77.701      c1.125-12.716,3.397-14.52,3.629-17.117c0.077-0.863-0.285-1.397-1.218-1.397c-24.6-0.017-43.442,8.049-56.86,20.073      C86.313,196.525,82.666,216.944,87.739,242.063z M443.469,224.951c-12.191-31.088-37.328-47.675-60.832-48.49      c-2.837-0.098-4.515-0.19-3.638,2.812c8.536,29.236,0.358,56.224-20.572,76.486c-3.124,3.024-3.067,3.093,0.841,4.873      c21.381,9.743,38.797,30.73,42.588,58.166c2.303,16.667-3.166,27.623,0.604,25.184c14.073-9.104,25.061-17.979,34.669-34.323      C452.734,283.111,454.285,252.53,443.469,224.951z"/>
				<g>
					<path style="fill:#000E3F;" d="M296.769,441.472c1.502-7.335-3.353-14.656-10.698-16.132       c-11.26-2.263-20.062,10.148-14.404,20.066C277.755,456.076,294.287,453.59,296.769,441.472z"/>
					<path style="fill:#000E3F;" d="M171.88,428.455c7.039,1.988,15.133-3.611,16.308-10.503       c2.991-17.546-21.738-23.285-26.59-5.942C159.697,418.805,164.78,427.326,171.88,428.455z"/>
				</g>
				<g>
					<path style="fill:#000E3F;" d="M221.905,459.602c6.501,1.372,13.378,0.041,19.439-3.777       c6.941-4.372,12.073-11.61,13.728-19.363c0.29-1.353-0.573-2.685-1.926-2.974c-0.002,0-0.004-0.001-0.007-0.001       c-1.352-0.286-2.68,0.577-2.968,1.93c-1.381,6.456-5.679,12.5-11.497,16.167c-5.115,3.221-10.91,4.301-16.261,2.994       c-11.443-2.751-18.9-15.984-15.956-28.315c0.321-1.347-0.509-2.698-1.856-3.019c-1.386-0.339-2.7,0.509-3.021,1.856       c-3.626,15.185,5.378,30.917,19.658,34.352C221.462,459.505,221.683,459.555,221.905,459.602z"/>
				</g>
			</g>
		</g>
	</g>
	<g>
		<path style="fill:#FD8A02;" d="M422.157,146.234l13.842,0.373c0.884,0.024,1.699,0.481,2.18,1.222l7.54,11.614    c1.212,1.867,4.039,1.533,4.783-0.564l4.632-13.049c0.296-0.833,0.982-1.467,1.836-1.696l13.376-3.582    c2.15-0.576,2.706-3.367,0.942-4.724l-10.979-8.438c-0.701-0.538-1.092-1.388-1.045-2.27l0.726-13.828    c0.117-2.223-2.366-3.615-4.201-2.355l-11.418,7.835c-0.729,0.5-1.657,0.61-2.483,0.293l-12.927-4.964    c-2.078-0.798-4.169,1.133-3.538,3.268l3.923,13.28c0.25,0.847,0.068,1.764-0.489,2.451l-8.716,10.76    C418.742,143.589,419.932,146.174,422.157,146.234z"/>
		<path style="fill:#FD8A02;" d="M331.906,94.442l10.309-2.489c0.658-0.159,1.352,0.016,1.856,0.468l7.895,7.082    c1.269,1.138,3.293,0.327,3.424-1.372l0.819-10.574c0.052-0.675,0.433-1.281,1.019-1.62l9.175-5.32    c1.475-0.855,1.329-3.03-0.247-3.681l-9.803-4.046c-0.626-0.258-1.084-0.808-1.226-1.47l-2.224-10.37    c-0.357-1.667-2.471-2.2-3.577-0.902l-6.878,8.073c-0.439,0.515-1.103,0.782-1.777,0.712l-10.549-1.089    c-1.696-0.175-2.856,1.671-1.964,3.123l5.553,9.036c0.355,0.576,0.403,1.291,0.128,1.91l-4.295,9.696    C328.852,93.168,330.249,94.842,331.906,94.442z"/>
		<path style="fill:#FD8A02;" d="M415.276,63.709l10.586-0.638c0.676-0.041,1.328,0.254,1.745,0.787l6.527,8.359    c1.049,1.344,3.183,0.901,3.612-0.749l2.665-10.265c0.17-0.655,0.652-1.185,1.288-1.416l9.967-3.624    c1.602-0.583,1.841-2.75,0.404-3.667l-8.939-5.706c-0.571-0.364-0.926-0.986-0.949-1.662l-0.367-10.6    c-0.059-1.704-2.046-2.6-3.363-1.517l-8.19,6.738c-0.523,0.43-1.224,0.576-1.874,0.389l-10.194-2.926    c-1.638-0.47-3.105,1.142-2.482,2.729l3.878,9.871c0.247,0.63,0.169,1.341-0.21,1.903l-5.933,8.791    C412.493,61.919,413.574,63.812,415.276,63.709z"/>
	</g>
</g>















</svg>
